<?xml version="1.0" encoding="UTF-8"?>
<svg width="40px" height="40px" viewBox="0 0 40 40" version="1.1" xmlns="http://www.w3.org/2000/svg" xmlns:xlink="http://www.w3.org/1999/xlink">
    <!-- Generator: Sketch 51.2 (57519) - http://www.bohemiancoding.com/sketch -->
    <title>Icon/Round/Call</title>
    <desc>Created with Sketch.</desc>
    <defs>
        <path d="M24,4 C12.9544,4 4,12.9544 4,24 C4,35.0456 12.9544,44 24,44 C35.0456,44 44,35.0456 44,24 C44,12.9544 35.0456,4 24,4 Z" id="path-1"></path>
    </defs>
    <g id="Contact-Us-Map" stroke="none" stroke-width="1" fill="none" fill-rule="evenodd">
        <g id="Android" transform="translate(-63.000000, -510.000000)">
            <g id="Icon/Round/Call" transform="translate(59.000000, 506.000000)">
                <mask id="mask-2" fill="white">
                    <use xlink:href="#path-1"></use>
                </mask>
                <g id="Path" fill-rule="nonzero"></g>
                <g id="Color/Secondary/Chateau-Green" mask="url(#mask-2)" fill="#37B44E" fill-rule="evenodd">
                    <rect id="Swatch---Teal-Blue-Copy-2" x="0" y="0" width="48" height="48"></rect>
                </g>
                <path d="M18.0222222,22.6555556 C19.6222222,25.8 22.2,28.3666667 25.3444444,29.9777778 L27.7888889,27.5333333 C28.0888889,27.2333333 28.5333333,27.1333333 28.9222222,27.2666667 C30.1666667,27.6777778 31.5111111,27.9 32.8888889,27.9 C33.5,27.9 34,28.4 34,29.0111111 L34,32.8888889 C34,33.5 33.5,34 32.8888889,34 C22.4555556,34 14,25.5444444 14,15.1111111 C14,14.5 14.5,14 15.1111111,14 L19,14 C19.6111111,14 20.1111111,14.5 20.1111111,15.1111111 C20.1111111,16.5 20.3333333,17.8333333 20.7444444,19.0777778 C20.8666667,19.4666667 20.7777778,19.9 20.4666667,20.2111111 L18.0222222,22.6555556 Z" id="call" fill="#FFFFFF" fill-rule="nonzero" mask="url(#mask-2)"></path>
            </g>
        </g>
    </g>
</svg>