<?xml version="1.0" encoding="UTF-8"?>
<svg width="40px" height="40px" viewBox="0 0 40 40" version="1.1" xmlns="http://www.w3.org/2000/svg" xmlns:xlink="http://www.w3.org/1999/xlink">
    <!-- Generator: Sketch 51.2 (57519) - http://www.bohemiancoding.com/sketch -->
    <title>Icon/Round/Call Copy</title>
    <desc>Created with Sketch.</desc>
    <defs>
        <path d="M24,4 C12.9544,4 4,12.9544 4,24 C4,35.0456 12.9544,44 24,44 C35.0456,44 44,35.0456 44,24 C44,12.9544 35.0456,4 24,4 Z" id="path-1"></path>
        <path d="M23.3333329,4.66666659 L4.66666659,4.66666659 C3.38333328,4.66666659 2.34499996,5.71666657 2.34499996,6.99999988 L2.33333329,20.9999996 C2.33333329,22.283333 3.38333328,23.3333329 4.66666659,23.3333329 L23.3333329,23.3333329 C24.6166662,23.3333329 25.6666662,22.283333 25.6666662,20.9999996 L25.6666662,6.99999988 C25.6666662,5.71666657 24.6166662,4.66666659 23.3333329,4.66666659 Z M23.3333329,20.9999996 L4.66666659,20.9999996 L4.66666659,9.33333317 L13.9999998,15.1666664 L23.3333329,9.33333317 L23.3333329,20.9999996 Z M13.9999998,12.8333331 L4.66666659,6.99999988 L23.3333329,6.99999988 L13.9999998,12.8333331 Z" id="path-3"></path>
    </defs>
    <g id="Contact-Us-Map" stroke="none" stroke-width="1" fill="none" fill-rule="evenodd">
        <g id="Android" transform="translate(-244.000000, -510.000000)">
            <g id="Icon/Round/Email" transform="translate(240.000000, 506.000000)">
                <mask id="mask-2" fill="white">
                    <use xlink:href="#path-1"></use>
                </mask>
                <g id="Path"></g>
                <g id="Color/Hacon/Backgrounds" mask="url(#mask-2)" fill="#1F87E6" fill-rule="evenodd">
                    <rect id="Swatch---Science-Blue" x="0" y="0" width="48" height="48"></rect>
                </g>
                <g id="icon/communication/mail_outline_24px" mask="url(#mask-2)">
                    <g transform="translate(10.000000, 10.000000)">
                        <mask id="mask-4" fill="white">
                            <use xlink:href="#path-3"></use>
                        </mask>
                        <g id="icon/communication/mail_outline_24px" stroke="none" fill="none" fill-rule="nonzero"></g>
                        <g id="Color/Hacon/White" stroke="none" fill="none" mask="url(#mask-4)" fill-rule="evenodd">
                            <rect id="Swatch---White" fill="#FFFFFF" x="0" y="0" width="27.9604515" height="27.9604515"></rect>
                        </g>
                    </g>
                </g>
            </g>
        </g>
    </g>
</svg>