<svg xmlns="http://www.w3.org/2000/svg" xmlns:xlink="http://www.w3.org/1999/xlink" width="24" height="24" viewBox="0 0 24 24"><defs><polygon id="a" points="0 0 24 0 24 23.854 0 23.854"/></defs><g fill="none" fill-rule="evenodd"><path fill="#1877F2" fill-rule="nonzero" d="M21,24 L3,24 C1.344,24 0,22.656 0,21 L0,3 C0,1.344 1.344,0 3,0 L21,0 C22.656,0 24,1.344 24,3 L24,21 C24,22.656 22.656,24 21,24 Z"/><mask id="b" fill="#fff"><use xlink:href="#a"/></mask><path fill="#1877F2" d="M23.9995312,11.9995312 C23.9995312,5.37185046 18.6267432,-0.000937536623 11.9990625,-0.000937536623 C5.37138169,-0.000937536623 -0.00140630493,5.37185046 -0.00140630493,11.9995312 C-0.00140630493,17.9893121 4.38699168,22.9539435 10.1239892,23.8542131 L10.1239892,15.4684167 L7.0769952,15.4684167 L7.0769952,11.9995312 L10.1239892,11.9995312 L10.1239892,9.35567796 C10.1239892,6.34806047 11.9155748,4.68674558 14.6567444,4.68674558 C15.9696941,4.68674558 17.3430212,4.92112973 17.3430212,4.92112973 L17.3430212,7.87437009 L15.8297902,7.87437009 C14.3390367,7.87437009 13.8741357,8.79941404 13.8741357,9.74843549 L13.8741357,11.9995312 L17.2023907,11.9995312 L16.6703387,15.4684167 L13.8741357,15.4684167 L13.8741357,23.8542131 C19.6111332,22.9539435 23.9995312,17.9893121 23.9995312,11.9995312" mask="url(#b)"/><path fill="#FFF" d="M16.6703387,15.4684167 L17.2023907,11.9995312 L13.8741357,11.9995312 L13.8741357,9.74843549 C13.8741357,8.79941404 14.3390367,7.87437009 15.8297902,7.87437009 L17.3430212,7.87437009 L17.3430212,4.92112973 C17.3430212,4.92112973 15.9696941,4.68674558 14.6567444,4.68674558 C11.9155748,4.68674558 10.1239892,6.34806047 10.1239892,9.35567796 L10.1239892,11.9995312 L7.0769952,11.9995312 L7.0769952,15.4684167 L10.1239892,15.4684167 L10.1239892,23.8542131 C10.7349584,23.9500762 11.3611625,24 11.9990625,24 C12.6369624,24 13.2631665,23.9500762 13.8741357,23.8542131 L13.8741357,15.4684167 L16.6703387,15.4684167"/></g></svg>