<?xml version="1.0" encoding="UTF-8" standalone="no"?>
<svg
   xmlns:dc="http://purl.org/dc/elements/1.1/"
   xmlns:cc="http://creativecommons.org/ns#"
   xmlns:rdf="http://www.w3.org/1999/02/22-rdf-syntax-ns#"
   xmlns:svg="http://www.w3.org/2000/svg"
   xmlns="http://www.w3.org/2000/svg"
   xml:space="preserve"
   viewBox="0 0 100 100"
   version="1.1"
   id="Layer_1"><metadata
     id="metadata9"><rdf:RDF><cc:Work
         rdf:about=""><dc:format>image/svg+xml</dc:format><dc:type
           rdf:resource="http://purl.org/dc/dcmitype/StillImage" /><dc:title></dc:title></cc:Work></rdf:RDF></metadata><defs
     id="defs7" /><path
     id="path2"
     style="fill:#9c7b38;fill-opacity:1"
     d="M99.74,61.136c-0.446-6.188-2.827-9.714-8.688-11.136H100v-8H85v6.667L75.932,26H23.754L15,48.269V42H0v8h8.633   c-5.788,1.395-8.102,4.831-8.546,10.994C0.033,61.27,0,70.755,0,71.046V90h8v10h13V90h56v10h14V90h9V71.046   C100,70.755,99.795,61.413,99.74,61.136z M29.449,32h40.907l5.483,16H24.108L29.449,32z M6,68v-7h14.384l5.224,7H6z M60.364,78   H39.65L27.848,61h43.941L60.364,78z M95,68H74.742l5.224-7H95V68z " /></svg>