<svg xmlns="http://www.w3.org/2000/svg" width="24" height="24" viewBox="0 0 24 24"><g fill="none" fill-rule="evenodd"><path fill="#006087" d="M1.77145079,0 C0.794144607,0 0,0.774666667 0,1.72933333 L0,22.2683333 C0,23.2241667 0.794144607,24 1.77145079,24 L22.2235493,24 C23.2025222,24 24,23.2241667 24,22.2683333 L24,1.72933333 C24,0.774666667 23.2025222,0 22.2235493,0 L1.77145079,0 Z"/><path fill="#FFFFFE" d="M5.33901836 3.30416667C6.47698675 3.30416667 7.40179439 4.229 7.40179439 5.3675 7.40179439 6.507 6.47698675 7.43183333 5.33901836 7.43183333 4.19805005 7.43183333 3.27457571 6.507 3.27457571 5.3675 3.27457571 4.229 4.19805005 3.30416667 5.33901836 3.30416667L5.33901836 3.30416667ZM3.55840116 20.4511667 7.11813561 20.4511667 7.11813561 8.9975 3.55840116 8.9975 3.55840116 20.4511667ZM9.35074026 8.9975 12.7649788 8.9975 12.7649788 10.5625 12.8126441 10.5625C13.2879642 9.66216667 14.448932 8.71283333 16.1807172 8.71283333 19.7852837 8.71283333 20.4507653 11.0851667 20.4507653 14.1688333L20.4507653 20.4511667 16.8935307 20.4511667 16.8935307 14.8811667C16.8935307 13.553 16.8691981 11.8445 15.0439154 11.8445 13.1916336 11.8445 12.9073081 13.2913333 12.9073081 14.7851667L12.9073081 20.4511667 9.35074026 20.4511667 9.35074026 8.9975"/></g></svg>