<?xml version="1.0" encoding="UTF-8"?>
<svg width="121px" height="165px" viewBox="0 0 121 165" version="1.1" xmlns="http://www.w3.org/2000/svg" xmlns:xlink="http://www.w3.org/1999/xlink">
    <title>Logo/S.Hail_Brandmark_DL_Primary</title>
    <defs>
        <path d="M58.1816097,143.506242 C57.0526797,143.506242 55.9382697,143.715665 54.8414047,144.133 C53.7393972,144.552753 52.8600297,145.154731 52.1927147,145.929868 L52.1927147,135.395857 L45.9869272,135.395857 L45.9869272,164.314676 L52.2350647,164.314676 L52.2350647,153.388412 C52.2350647,152.780995 52.3212772,152.211049 52.4967272,151.675555 C52.6673372,151.14278 52.9317222,150.671049 53.2747572,150.268522 C53.6235397,149.866599 54.0606522,149.538412 54.5794397,149.291214 C55.0982272,149.044319 55.6914297,148.92344 56.3584422,148.92344 C57.3709097,148.92344 58.1816097,149.256764 58.7893322,149.920995 C59.3970547,150.584923 59.6986472,151.51267 59.6986472,152.694868 L59.6986472,164.314676 L65.9044347,164.314676 L65.9044347,151.742341 C65.9044347,149.027396 65.2053572,146.973962 63.8020597,145.586874 C62.3963422,144.197368 60.5235647,143.506242 58.1816097,143.506242 L58.1816097,143.506242 Z M82.7685072,156.986984 C82.7685072,157.564484 82.6475072,158.07006 82.4203297,158.504621 C82.1880097,158.936764 81.8915597,159.299703 81.5285597,159.588302 C81.1652572,159.874484 80.7502272,160.104154 80.2707647,160.259484 C79.7940247,160.419951 79.3100247,160.498824 78.8184622,160.498824 C76.7923172,160.498824 75.7795472,159.662038 75.7795472,157.983934 C75.7795472,157.087918 76.1425472,156.392258 76.8640097,155.903302 C77.5854722,155.412231 78.8184622,155.165637 80.5575347,155.165637 C81.0739022,155.165637 81.5382397,155.189813 81.9435897,155.232423 C82.3462172,155.274126 82.6230047,155.308577 82.7685072,155.340912 L82.7685072,156.986984 Z M79.7298947,143.286544 C78.5144497,143.286544 77.4369447,143.368137 76.4958672,143.525582 C75.5547897,143.688769 74.7099072,143.893357 73.9560772,144.152643 C73.2049697,144.414648 72.5555022,144.703247 72.0043472,145.021462 C71.4559147,145.339978 70.9643522,145.655775 70.5293572,145.979429 L73.0888097,149.789841 C73.7237572,149.357698 74.5020897,148.965143 75.4111022,148.617615 C76.3228372,148.271901 77.4741522,148.101764 78.8626272,148.101764 C79.3838347,148.101764 79.8729772,148.153742 80.3376172,148.252258 C80.7998372,148.350775 81.2097247,148.528467 81.5703047,148.772945 C81.9360272,149.017121 82.2227972,149.323549 82.4399922,149.683467 C82.6550697,150.041874 82.7685072,150.483385 82.7685072,151.004071 L82.7685072,151.43833 C82.5340697,151.379401 82.0521872,151.334978 81.3134822,151.310198 C80.5747772,151.278467 79.8433322,151.263659 79.1242897,151.263659 C77.7902647,151.263659 76.5551572,151.421104 75.4111022,151.739923 C74.2673497,152.060555 73.2790822,152.529566 72.4366197,153.146352 C71.5989972,153.773412 70.9422697,154.543412 70.4628072,155.469044 C69.9884872,156.392258 69.7510247,157.451159 69.7510247,158.633357 C69.7510247,159.849703 69.9712447,160.862066 70.4207597,161.671049 C70.8678547,162.48094 71.4314122,163.122505 72.1132472,163.598769 C72.7899397,164.075033 73.5286447,164.41561 74.3266397,164.618082 C75.1222147,164.818137 75.8808847,164.919071 76.6044647,164.919071 C77.9067272,164.919071 79.0852672,164.702093 80.1425047,164.270555 C81.1973222,163.835995 82.0742697,163.214071 82.7685072,162.406599 L82.9418397,164.314676 L88.7994498,164.314676 L88.7994498,152.477588 C88.7994498,149.676516 88.0604422,147.442368 86.5833347,145.781489 C85.1104622,144.118192 82.8253772,143.286544 79.7298947,143.286544 L79.7298947,143.286544 Z M93.4416147,164.314676 L99.6870297,164.314676 L99.6870297,143.982505 L93.4416147,143.982505 L93.4416147,164.314676 Z M48.7042847,125.198495 C48.7042847,124.309731 48.3830297,123.544566 47.7384022,122.900582 C47.0937747,122.256297 46.3254247,121.932945 45.4333522,121.932945 C44.5464222,121.932945 43.7780722,122.256297 43.1334447,122.900582 C42.4885147,123.544566 42.1648397,124.309731 42.1648397,125.198495 C42.1648397,126.089071 42.4885147,126.854538 43.1334447,127.498522 C43.7780722,128.142505 44.5464222,128.465857 45.4333522,128.465857 C46.3254247,128.465857 47.0937747,128.142505 47.7384022,127.498522 C48.3830297,126.854538 48.7042847,126.089071 48.7042847,125.198495 L48.7042847,125.198495 Z M65.7906947,123.139621 C65.4373747,123.630692 64.8471972,123.878192 64.0195572,123.878192 C62.7917097,123.878192 61.9071997,123.329703 61.3708672,122.234236 C60.8348372,121.136049 60.5656122,119.706956 60.5656122,117.944538 L62.9127097,117.944538 C63.6217697,117.944538 64.1950072,118.08506 64.6396822,118.361874 C65.0867772,118.642918 65.4301147,118.959016 65.6772572,119.314401 C65.9219797,119.669786 66.0922872,120.030005 66.1812222,120.402918 C66.2752997,120.772808 66.3218847,121.052038 66.3218847,121.236984 C66.3218847,122.009401 66.1440147,122.646434 65.7906947,123.139621 L65.7906947,123.139621 Z M60.5656122,110.172313 C60.5656122,108.607835 60.8496597,107.282396 61.4180572,106.193879 C61.9861522,105.102643 62.8213547,104.559593 63.9278997,104.559593 C64.6938297,104.559593 65.2794697,104.833385 65.6772572,105.386407 C66.0750447,105.937615 66.2752997,106.645665 66.2752997,107.504511 C66.2752997,108.148495 66.1912047,108.785225 66.0230147,109.412286 C65.8551272,110.042066 65.5834822,110.594484 65.2153397,111.06833 C64.8471972,111.544593 64.3728772,111.927176 63.7896572,112.218797 C63.2064372,112.509813 62.5149222,112.655473 61.7172297,112.655473 L60.5656122,112.655473 L60.5656122,110.172313 Z M104.956882,99.6355824 L104.956882,112.655473 L102.09856,112.655473 C100.287492,112.655473 99.3830172,111.598989 99.3830172,109.481187 L99.3830172,101.659703 L93.3944247,101.659703 L93.3944247,110.446407 C93.3944247,111.366901 93.0807322,111.966764 92.4533472,112.243275 C91.8232397,112.519786 91.0621497,112.655473 90.1727997,112.655473 C89.0366097,112.655473 88.1986847,112.371709 87.6653772,111.806297 C87.1242047,111.239071 86.8601222,110.463934 86.8601222,109.481187 L86.8601222,101.659703 L80.9628847,101.659703 L80.9628847,110.446407 C80.9628847,110.969813 80.9008722,111.377176 80.7798722,111.665775 C80.6564522,111.957093 80.4561972,112.179209 80.1821322,112.332121 C79.9050422,112.487451 79.5444622,112.578714 79.0997872,112.611352 C78.6554147,112.640665 78.0918572,112.655473 77.4175847,112.655473 L70.4180372,112.655473 L70.4180372,112.470225 C71.0333222,111.646132 71.4631747,110.764923 71.7078972,109.827203 C71.9547372,108.891599 72.0760397,107.931214 72.0760397,106.951489 C72.0760397,106.154593 71.9302347,105.295143 71.6410447,104.377368 C71.3470147,103.456571 70.8902397,102.604978 70.2601322,101.822588 C69.6276047,101.040198 68.8075272,100.391077 67.7968747,99.8679725 C66.7838022,99.3442637 65.5538372,99.0852802 64.1109122,99.0852802 C61.3191397,99.0852802 59.1474922,100.119703 57.5935497,102.187945 C56.0447497,104.261022 55.2688372,107.151544 55.2688372,110.861324 L55.2688372,112.655473 L49.4729372,112.655473 C48.0003672,112.655473 46.9652122,112.411297 46.3647497,111.920225 C45.7670097,111.431269 45.4654172,110.616846 45.4654172,109.481187 L45.4654172,99.6355824 L39.4819672,99.6355824 L39.4819672,109.98767 C39.4819672,111.122725 39.2741497,111.85344 38.8591197,112.171654 C38.4465097,112.495005 37.7153672,112.655473 36.6726497,112.655473 L29.3969197,112.655473 L29.3969197,92.4260495 L23.4131672,92.4260495 L23.4131672,117.808852 C23.4131672,120.077148 22.8719947,120.743495 21.7999347,121.71083 C20.7254547,122.675747 20.4780097,123.159868 18.2053272,123.159868 C15.8137622,123.159868 14.0943522,122.592038 13.0492147,121.456681 C12.0064972,120.323742 11.4828697,119.632615 11.4828697,117.4855 L11.4828697,110.493549 L5.49911725,110.493549 L5.49911725,117.714868 C5.49911725,121.671242 6.55151475,123.697478 8.65630975,125.691984 C10.7665497,127.684071 13.8940972,128.68072 18.0446997,128.68072 C19.9840272,128.68072 20.2952997,128.488522 21.8319997,128.10322 C23.3686997,127.720637 24.6754997,127.079071 25.7527022,126.175802 C26.8299047,125.267396 27.6747872,124.072808 28.2903747,122.584484 C28.9053572,121.096462 29.2610972,120.18322 29.3524522,117.944538 L37.6388347,117.944538 C38.2513972,117.944538 38.8742447,117.922176 39.5040497,117.877753 C40.1341572,117.831214 40.7367372,117.729676 41.3247972,117.579181 C41.9052947,117.426269 42.4585672,117.186626 42.9800772,116.866297 C43.5040072,116.542643 43.9459597,116.120775 44.3168247,115.599786 C44.5933097,116.091159 44.9393697,116.488549 45.3519797,116.797093 C45.7670097,117.105335 46.2041222,117.34256 46.6636197,117.507863 C47.1255372,117.677698 47.6001597,117.794044 48.0917222,117.852973 C48.5808647,117.914923 49.0455047,117.944538 49.4729372,117.944538 L55.2688372,117.944538 L55.2688372,118.265775 C55.2688372,119.953549 55.4318847,121.471489 55.7552572,122.821709 C56.0765122,124.171626 56.5831997,125.311819 57.2722947,126.249538 C57.9641122,127.185143 58.8610247,127.903467 59.9651497,128.411764 C61.0722997,128.917643 62.4232647,129.169676 64.0195572,129.169676 C65.4028897,129.169676 66.5889922,128.971736 67.5869397,128.572231 C68.5851897,128.175143 69.4076872,127.641764 70.0526172,126.985088 C70.6975472,126.323879 71.1818497,125.551462 71.5003822,124.662698 C71.8240572,123.771819 71.9846847,122.836516 71.9846847,121.856489 C71.9846847,121.671242 71.9698622,121.426764 71.9377972,121.121242 C71.9081522,120.812396 71.8388797,120.482093 71.7327022,120.131242 C71.6241047,119.778275 71.4779972,119.418055 71.2955897,119.04756 C71.1098547,118.680088 70.8654347,118.359154 70.5590022,118.082643 L70.5590022,117.944538 L77.3235072,117.944538 C79.3814147,117.944538 81.0714822,117.816407 82.3903822,117.554401 C83.7098872,117.295418 84.7843672,116.626654 85.6147297,115.552945 C86.0766472,116.138 86.8353172,116.680747 87.8952772,117.186626 C88.9525147,117.692808 90.2665747,117.944538 91.8304997,117.944538 C92.3199447,117.944538 92.8363122,117.932148 93.3747622,117.900418 C93.9083722,117.870802 94.4543847,117.776819 95.0076572,117.621187 C95.5588122,117.470692 96.0975647,117.233769 96.6208897,116.910418 C97.1399797,116.589484 97.6342647,116.138 98.0934597,115.552945 C98.6790997,116.382176 99.3830172,116.987176 100.210657,117.369758 C101.04102,117.754456 102.266145,117.944538 103.894502,117.944538 L110.937912,117.944538 L110.937912,99.6355824 L104.956882,99.6355824 Z M96.4926297,135.01811 C95.5488297,135.01811 94.7387347,135.356269 94.0541772,136.037423 C93.3747622,136.718577 93.0314247,137.530885 93.0314247,138.471022 C93.0314247,139.414181 93.3747622,140.223467 94.0541772,140.907341 C94.7387347,141.588495 95.5488297,141.926654 96.4926297,141.926654 C97.4340097,141.926654 98.2468272,141.588495 98.9259397,140.907341 C99.6104972,140.223467 99.9514147,139.414181 99.9514147,138.471022 C99.9514147,137.530885 99.6104972,136.718577 98.9259397,136.037423 C98.2468272,135.356269 97.4340097,135.01811 96.4926297,135.01811 L96.4926297,135.01811 Z M104.690077,164.314676 L110.937912,164.314676 L110.937912,135.397973 L104.690077,135.397973 L104.690077,164.314676 Z M27.5144622,149.530857 C26.7064847,148.807698 25.7874897,148.222643 24.7595947,147.773577 C23.7320022,147.326929 22.6820247,146.973962 21.6120822,146.712258 C19.7937547,146.307615 18.3586947,145.801736 17.3183972,145.194319 C16.2759822,144.586901 15.7568922,143.794841 15.7568922,142.81028 C15.7568922,142.434951 15.8630697,142.079566 16.0805672,141.749264 C16.2980647,141.418055 16.5869522,141.124621 16.9499522,140.88256 C17.3111372,140.635967 17.7158822,140.440445 18.1632797,140.297808 C18.6103747,140.151846 19.0698722,140.07811 19.5317897,140.07811 C20.2239097,140.07811 20.8833597,140.166654 21.5059047,140.339511 C22.1308697,140.515088 22.6992672,140.729648 23.2204747,140.991352 C23.7392622,141.250335 24.2087422,141.528962 24.6286122,141.83539 C25.0487847,142.138797 25.4169272,142.420143 25.7354597,142.679429 L29.5106597,138.520582 C29.2486947,138.259181 28.8681497,137.906214 28.3641847,137.456846 C27.8553797,137.00778 27.2056097,136.578055 26.4076147,136.156187 C25.6120397,135.736434 24.6506947,135.373495 23.5217647,135.070088 C22.3952547,134.769099 21.0935972,134.621022 19.6186072,134.621022 C17.8223622,134.621022 16.2708397,134.855225 14.9516372,135.331489 C13.6372747,135.807753 12.5376872,136.457176 11.6534797,137.283989 C10.7689697,138.105665 10.1116372,139.053659 9.67936475,140.122533 C9.24467225,141.193824 9.02717475,142.334016 9.02717475,143.54583 C9.02717475,144.644319 9.21744725,145.643385 9.59284975,146.536984 C9.96825225,147.433 10.4970222,148.229896 11.1764372,148.92344 C11.8558522,149.616984 12.6662497,150.209593 13.6052097,150.700665 C14.5462872,151.193852 15.5666197,151.567066 16.6686272,151.828467 C18.9243697,152.408687 20.5720872,152.993742 21.6120822,153.58333 C22.6547997,154.173522 23.1784272,155.007588 23.1784272,156.078879 C23.1784272,156.567533 23.0525872,157.011159 22.8078647,157.399181 C22.5607222,157.791434 22.2373497,158.122038 21.8295797,158.39583 C21.4242297,158.67506 20.9771347,158.882368 20.4882947,159.02289 C19.9940097,159.170967 19.4997247,159.239868 19.0108847,159.239868 C18.1705397,159.239868 17.3801072,159.131379 16.6462422,158.917121 C15.9075372,158.697121 15.2284247,158.418495 14.6079972,158.07006 C13.9806122,157.727368 13.4173572,157.339951 12.9109722,156.922615 C12.4042847,156.500747 11.9620297,156.093385 11.5890472,155.686324 L7.38157475,160.237423 C7.92758725,160.844236 8.59006225,161.436846 9.35326975,162.017066 C10.1216197,162.596681 10.9813247,163.107698 11.9375272,163.557066 C12.8910072,164.003714 13.9585297,164.363934 15.1467497,164.63833 C16.3325497,164.912121 17.6493322,165.052643 19.0970972,165.052643 C20.6610222,165.052643 22.1112072,164.82539 23.4576347,164.379044 C24.8040622,163.929374 25.9750397,163.302615 26.9732897,162.49333 C27.9715397,161.68344 28.7592497,160.730912 29.3400497,159.632423 C29.9181272,158.534538 30.2048972,157.332396 30.2048972,156.031434 C30.2048972,154.53344 29.9577547,153.255143 29.4686122,152.198659 C28.9794697,151.14278 28.3272797,150.253714 27.5144622,149.530857 L27.5144622,149.530857 Z M39.7560322,127.498522 C40.4009622,126.854538 40.7270572,126.089071 40.7270572,125.198495 C40.7270572,124.309731 40.4009622,123.544566 39.7560322,122.900582 C39.1138247,122.256297 38.3454747,121.932945 37.4558222,121.932945 C36.5640522,121.932945 35.7981222,122.256297 35.1507722,122.900582 C34.5085647,123.544566 34.1848897,124.309731 34.1848897,125.198495 C34.1848897,126.089071 34.5085647,126.854538 35.1507722,127.498522 C35.7981222,128.142505 36.5640522,128.465857 37.4558222,128.465857 C38.3454747,128.465857 39.1138247,128.142505 39.7560322,127.498522 L39.7560322,127.498522 Z M36.7122772,148.259813 C35.3631272,148.259813 34.2641447,147.164044 34.2641447,145.814126 C34.2641447,144.461187 35.3631272,143.362698 36.7122772,143.362698 C38.0662672,143.362698 39.1631322,144.461187 39.1631322,145.814126 C39.1631322,147.164044 38.0662672,148.259813 36.7122772,148.259813 L36.7122772,148.259813 Z M36.7122772,139.936984 C33.4486047,139.936984 30.7999147,142.585445 30.7999147,145.848275 C30.7999147,147.213604 31.2648572,148.474071 32.0456097,149.476462 L36.3813422,154.972533 C36.4599922,155.074071 36.5788747,155.135418 36.7122772,155.135418 C36.8505197,155.135418 36.9694022,155.074071 37.0459347,154.972533 L41.3840872,149.476462 C42.1648397,148.474071 42.6294797,147.213604 42.6294797,145.848275 C42.6294797,142.585445 39.9807897,139.936984 36.7122772,139.936984 L36.7122772,139.936984 Z" id="path-1"></path>
        <path d="M57.7020263,60.3826566 C45.5826663,60.3826566 34.0922038,55.7683984 25.3475338,47.3920797 L21.3926488,51.5101291 C31.2057488,60.9136181 44.1010213,66.0902665 57.7020263,66.0902665 C71.2963763,66.0902665 84.1846913,60.9181511 93.9953713,51.5258434 L90.0432087,47.4056786 C81.3009588,55.7735357 69.8150337,60.3826566 57.7020263,60.3826566 M107.367989,20.1111731 C103.786691,20.1111731 100.871499,17.1997995 100.871499,13.6208709 C100.871499,10.0470797 103.786691,7.14023901 107.367989,7.14023901 C110.948379,7.14023901 113.858731,10.0470797 113.858731,13.6208709 C113.858731,17.1997995 110.948379,20.1111731 107.367989,20.1111731 M107.367989,0.00021153846 C100.818561,0.00021153846 95.3336313,4.63018407 94.0225963,10.7838379 L15.9654963,10.7838379 C14.8075263,7.64128297 11.7834338,5.39897527 8.23510875,5.39897527 C3.68429875,5.39897527 0.00015125,9.08337088 0.00015125,13.6208709 C0.00015125,18.1701566 3.68429875,21.8521346 8.23510875,21.8521346 C11.7828288,21.8521346 14.8054088,19.6122445 15.9648913,16.4678764 L94.0250163,16.4678764 C95.3387738,22.6221346 100.822191,27.2515027 107.367989,27.2515027 C114.888744,27.2515027 121.006806,21.136228 121.006806,13.6208709 C121.006806,6.10974451 114.888744,0.00021153846 107.367989,0.00021153846" id="path-3"></path>
    </defs>
    <g id="Guidelines" stroke="none" stroke-width="1" fill="none" fill-rule="evenodd">
        <g id="Logos" transform="translate(-69.000000, -313.000000)">
            <g id="Logo/S.Hail_Brandmark_DL_Primary" transform="translate(69.000000, 313.000000)">
                <mask id="mask-2" fill="white">
                    <use xlink:href="#path-1"></use>
                </mask>
                <g id="Arabic+English"></g>
                <g id="Group" mask="url(#mask-2)" fill="#1F87E6">
                    <g id="Color/Palette/Primary">
                        <polygon id="Color/Primary/S'hail-Blue-2" points="0 0 121 0 121 165 0 165"></polygon>
                    </g>
                </g>
                <mask id="mask-4" fill="white">
                    <use xlink:href="#path-3"></use>
                </mask>
                <g id="logo"></g>
                <g id="Group" mask="url(#mask-4)" fill="#1F87E6">
                    <g id="Color/Palette/Primary">
                        <polygon id="Color/Primary/S'hail-Blue-2" points="0 0 121 0 121 165 0 165"></polygon>
                    </g>
                </g>
            </g>
        </g>
    </g>
</svg>