<?xml version="1.0" encoding="utf-8"?>
<!-- Generator: Adobe Illustrator 19.2.1, SVG Export Plug-In . SVG Version: 6.00 Build 0)  -->
<svg version="1.1" id="Ebene_1" xmlns="http://www.w3.org/2000/svg" xmlns:xlink="http://www.w3.org/1999/xlink" x="0px" y="0px"
	 viewBox="0 0 125 125" style="enable-background:new 0 0 125 125;" xml:space="preserve">
<g id="_x36_2x62_1_">
	<path style="fill:#2298E1;" d="M42.762,73.812c0.113-1.097,0.238-2.15,0.177-3.214c-0.26-4.511-4.013-8.013-8.554-7.973
		c-4.466,0.039-8.146,3.588-8.351,8.063c-0.025,0.546-0.003,1.093-0.003,1.652c-0.913,0-1.783,0.04-2.648-0.008
		c-2.352-0.13-4.698-0.322-7-0.867c-0.92-0.218-1.726-0.555-2.199-1.478c-0.285-0.554-0.848-0.905-1.315-1.295
		c-0.368-1.737-0.434-3.454-0.31-5.182c0.077-1.067,0.423-2.014,1.303-2.711c0.152-1.379-0.243-2.823,0.46-3.898
		c0.092-0.594-0.32-0.768-0.345-1.116c0.155-0.415,0.386-0.782,0.753-1.108c1.768-0.114,3.576-0.114,5.353-0.441
		c0.76-0.14,1.518-0.283,2.292-0.32c1.162-0.055,2.203-0.465,3.248-0.964c3.553-1.699,7.238-3.081,10.928-4.45
		c0.928-0.345,1.845-0.717,2.649-1.031c0.41-0.467,0.268-0.959,0.433-1.38c0.821-0.412,1.628-0.507,2.403,0.042
		c0.515,0.365,1.057,0.438,1.669,0.398c4.077-0.266,8.155-0.547,12.245-0.448c3.351,0.081,6.69,0.296,9.97,1.061
		c1.581,0.369,3.121,0.851,4.576,1.583c4.109,2.068,8.165,4.231,12.037,6.723c0.351,0.226,0.712,0.373,1.13,0.39
		c0.515,0.021,1.03,0.082,1.543,0.071c5.889-0.135,11.663,0.723,17.396,1.968c2.05,0.445,4.086,0.931,6.067,1.631
		c0.66,0.233,1.302,0.501,1.914,0.846c1.226,0.691,1.879,1.716,1.907,3.135c0.024,1.215,0.039,2.427-0.172,3.633
		c-0.184,1.05-0.261,2.093-0.116,3.174c0.222,1.658-0.427,2.491-2.062,2.792c-0.902,0.166-1.823,0.241-2.738,0.325
		c-0.396,0.037-0.803,0.097-1.324-0.067c0.654-3.478-0.157-6.532-2.979-8.85c-1.789-1.469-3.891-2.088-6.186-1.829
		c-2.672,0.301-4.803,1.588-6.267,3.862c-1.433,2.226-1.707,4.652-0.948,7.281C73.985,73.812,58.392,73.812,42.762,73.812z
		 M35.516,51.337c-0.892,2.008,0.043,3.908,2.134,4.326c1.044,0.209,2.113,0.272,3.18,0.341c4.779,0.311,9.57,0.156,14.351,0.369
		c0.358,0.016,0.735,0.11,1.142-0.139c-0.44-2.757-0.884-5.537-1.341-8.394c-0.468,0-0.831-0.012-1.192,0.002
		c-1.581,0.061-3.164,0.109-4.744,0.199c-2.832,0.163-5.646,0.502-8.403,1.18C38.822,49.67,37.02,50.204,35.516,51.337z
		 M57.925,47.955c0.034,1.247,1.939,7.058,2.713,8.386c4.652,0,9.295,0,13.945,0c-0.167-1.563-0.041-1.803,1.235-2.48
		C70.636,49.536,64.509,48.097,57.925,47.955z"/>
	<path style="fill:#2298E1;" d="M34.518,64.145c3.862,0.019,6.971,3.134,6.965,6.981c-0.006,3.886-3.171,6.996-7.081,6.957
		c-3.86-0.038-6.945-3.171-6.919-7.026C27.51,67.219,30.658,64.126,34.518,64.145z M29.507,71.145
		c0.012,2.76,2.263,4.999,5.007,4.98c2.749-0.019,4.967-2.275,4.951-5.038c-0.016-2.768-2.251-4.986-5.009-4.972
		C31.702,66.128,29.494,68.372,29.507,71.145z"/>
	<path style="fill:#2298E1;" d="M97.818,64.128c3.884,0.016,7.006,3.139,6.985,6.99c-0.021,3.931-3.153,7.018-7.084,6.983
		c-3.891-0.034-6.941-3.137-6.916-7.035C90.828,67.17,93.921,64.112,97.818,64.128z M92.768,71.105
		c-0.006,2.733,2.254,5.012,4.989,5.031c2.738,0.019,5.022-2.226,5.051-4.964c0.029-2.791-2.238-5.075-5.03-5.07
		C95.034,66.107,92.775,68.363,92.768,71.105z"/>
	<path style="fill:#2298E1;" d="M30.422,68.345c0.662,0.506,1.216,1.07,1.779,1.772c-0.888,0.296-1.691,0.198-2.561,0.086
		C29.706,69.473,29.959,68.896,30.422,68.345z"/>
	<path style="fill:#2298E1;" d="M36.725,70.218c0.574-0.815,1.169-1.33,1.795-1.885c0.501,0.538,0.707,1.13,0.827,1.842
		C38.501,70.371,37.721,70.31,36.725,70.218z"/>
	<path style="fill:#2298E1;" d="M32.251,71.952c-0.54,0.888-1.172,1.365-1.806,1.967c-0.477-0.537-0.692-1.122-0.825-1.868
		C30.469,71.848,31.265,71.968,32.251,71.952z"/>
	<path style="fill:#2298E1;" d="M36.801,72.037c0.928-0.143,1.678-0.125,2.478-0.032c0.018,0.751-0.275,1.328-0.752,1.905
		C37.909,73.351,37.295,72.864,36.801,72.037z"/>
	<path style="fill:#2298E1;" d="M31.66,67.093c0.604-0.529,1.196-0.723,1.902-0.832c0.086,0.872,0.099,1.658-0.014,2.54
		C32.766,68.38,32.321,67.707,31.66,67.093z"/>
	<path style="fill:#2298E1;" d="M35.416,68.874c-0.11-0.94-0.074-1.72-0.041-2.562c0.747-0.015,1.285,0.317,1.93,0.693
		C36.753,67.721,36.189,68.288,35.416,68.874z"/>
	<path style="fill:#2298E1;" d="M33.542,75.926c-0.738,0-1.272-0.345-1.891-0.722c0.591-0.673,1.116-1.247,1.896-1.833
		C33.656,74.316,33.67,75.11,33.542,75.926z"/>
	<path style="fill:#2298E1;" d="M35.349,73.315c0.852,0.633,1.375,1.214,1.933,1.843c-0.548,0.475-1.126,0.726-1.845,0.781
		C35.254,75.133,35.382,74.344,35.349,73.315z"/>
	<path style="fill:#2298E1;" d="M34.493,71.867c-0.586-0.156-0.803-0.482-0.66-0.999c0.087-0.315,0.333-0.478,0.656-0.475
		c0.322,0.003,0.566,0.167,0.649,0.485C35.274,71.401,35.037,71.712,34.493,71.867z"/>
	<path style="fill:#2298E1;" d="M96.868,68.96c-0.68-0.758-1.191-1.327-1.753-1.953c0.41-0.466,1.031-0.659,1.779-0.715
		C97.002,67.132,97.004,67.917,96.868,68.96z"/>
	<path style="fill:#2298E1;" d="M102.618,71.956c-0.035,0.797-0.296,1.372-0.769,1.954c-0.652-0.551-1.221-1.097-1.773-1.807
		C100.959,71.793,101.769,71.996,102.618,71.956z"/>
	<path style="fill:#2298E1;" d="M100.595,67.029c-0.578,0.69-1.113,1.264-1.837,1.803c-0.248-0.86-0.127-1.638-0.109-2.481
		C99.398,66.26,99.935,66.602,100.595,67.029z"/>
	<path style="fill:#2298E1;" d="M101.842,68.321c0.494,0.583,0.696,1.147,0.796,1.83c-0.851,0.267-1.648,0.122-2.605,0.094
		C100.576,69.415,101.194,68.923,101.842,68.321z"/>
	<path style="fill:#2298E1;" d="M93.639,68.259c0.746,0.634,1.327,1.16,1.853,1.882c-0.842,0.257-1.609,0.161-2.409,0.087
		C92.86,69.473,93.359,68.991,93.639,68.259z"/>
	<path style="fill:#2298E1;" d="M95.555,72.008c-0.591,0.811-1.173,1.338-1.821,1.895c-0.455-0.543-0.74-1.092-0.729-1.831
		C93.81,71.85,94.582,71.933,95.555,72.008z"/>
	<path style="fill:#2298E1;" d="M96.926,75.898c-0.843,0.02-1.342-0.324-1.956-0.664c0.576-0.711,1.111-1.304,1.923-1.847
		C97.021,74.291,96.963,75.06,96.926,75.898z"/>
	<path style="fill:#2298E1;" d="M100.613,75.159c-0.597,0.46-1.127,0.735-1.855,0.747c-0.246-0.798-0.154-1.574-0.064-2.54
		C99.472,73.886,99.953,74.514,100.613,75.159z"/>
	<path style="fill:#2298E1;" d="M97.79,71.872c-0.461-0.131-0.669-0.353-0.737-0.723c0.041-0.444,0.282-0.708,0.727-0.769
		c0.434,0.045,0.643,0.307,0.744,0.633C98.505,71.549,98.211,71.765,97.79,71.872z"/>
</g>
</svg>
