<?xml version="1.0" encoding="UTF-8" standalone="no"?>
<svg
   xmlns:dc="http://purl.org/dc/elements/1.1/"
   xmlns:cc="http://creativecommons.org/ns#"
   xmlns:rdf="http://www.w3.org/1999/02/22-rdf-syntax-ns#"
   xmlns:svg="http://www.w3.org/2000/svg"
   xmlns="http://www.w3.org/2000/svg"
   viewBox="0 0 125 125"
   height="125"
   width="125"
   xml:space="preserve"
   version="1.1"
   id="svg2"><metadata
     id="metadata8"><rdf:RDF><cc:Work
         rdf:about=""><dc:format>image/svg+xml</dc:format><dc:type
           rdf:resource="http://purl.org/dc/dcmitype/StillImage" /><dc:title></dc:title></cc:Work></rdf:RDF></metadata><defs
     id="defs6"><clipPath
       id="clipPath20"
       clipPathUnits="userSpaceOnUse"><path
         id="path22"
         d="M 0,100 100,100 100,0 0,0 0,100 Z" /></clipPath></defs><g
     transform="matrix(1.25,0,0,-1.25,0,125)"
     id="g10"><g
       transform="translate(66.8833,41.6202)"
       id="g32"><path
         id="path34"
         style="fill:#fbb03b;fill-opacity:1;fill-rule:nonzero;stroke:none"
         d="M 0,0 C 1.852,0 3.351,1.503 3.351,3.352 3.351,5.204 1.852,6.703 0,6.703 -1.849,6.703 -3.351,5.204 -3.351,3.352 -3.351,1.503 -1.849,0 0,0 m -30.849,23.47 -2.009,-10.058 32.189,0 -2.015,10.058 -28.165,0 z M -33.53,6.703 c -1.853,0 -3.354,-1.499 -3.354,-3.351 0,-1.849 1.501,-3.352 3.354,-3.352 1.849,0 3.35,1.503 3.35,3.352 0,1.852 -1.501,3.351 -3.35,3.351 M -43.587,3.475 c 0,4.579 3.093,8.429 7.302,9.583 l 2.755,13.764 3.35,0 8.388,0 0,3.352 10.059,0 0,-3.352 8.382,0 3.348,0 2.757,-13.764 C 6.963,11.904 10.06,8.054 10.06,3.475 l 0,-10.18 -6.709,0 0,-6.71 -6.702,0 0,6.71 -26.829,0 0,-6.71 -6.704,0 0,6.71 -6.703,0 0,10.18 z" /></g></g></svg>