<?xml version="1.0" encoding="utf-8"?>
<!-- Generator: Adobe Illustrator 19.2.1, SVG Export Plug-In . SVG Version: 6.00 Build 0)  -->
<svg version="1.1" id="Ebene_1" xmlns="http://www.w3.org/2000/svg" xmlns:xlink="http://www.w3.org/1999/xlink" x="0px" y="0px"
	 viewBox="0 0 100 100" style="enable-background:new 0 0 100 100;" xml:space="preserve">
<path style="fill-rule:evenodd;clip-rule:evenodd;fill:#0073DC;" d="M50,1C22.939,1,1,22.938,1,50c0,27.062,21.939,49,49,49
	c27.062,0,49-21.938,49-49C99,22.938,77.062,1,50,1z M50,89.097c-21.593,0-39.097-17.504-39.097-39.097
	c0-21.592,17.505-39.097,39.097-39.097S89.097,28.408,89.097,50C89.097,71.593,71.593,89.097,50,89.097z M66.059,61.948
	c-1.184-1.706-2.635-2.013-4.406-0.898c-1.425,0.885-2.813,1.833-4.269,2.667c-0.565,0.322-1.27,0.531-1.917,0.547
	c-1.84,0.042-3.342-0.887-4.69-2.005c-4.756-3.922-8.072-8.912-10.439-14.557c-0.74-1.771-1.263-3.605-1.183-5.554
	c0.062-1.534,0.562-2.8,2.023-3.597c1.222-0.664,2.365-1.466,3.547-2.214c2.017-1.274,2.332-2.707,1.025-4.731
	c-1.78-2.746-3.595-5.469-5.329-8.246c-0.545-0.873-1.278-1.228-2.224-1.356c-1.846-0.237-3.465,0.401-5.048,1.24
	c-1.472,0.781-2.403,2.212-3.081,3.676c-1.452,3.132-2.382,6.577-2.328,10.046c0.053,3.418,1.409,6.637,2.65,9.766
	c2.038,5.138,4.891,9.798,8.348,14.157c3.673,4.634,7.346,9.212,11.949,12.965c0.857,0.701,1.711,1.411,2.675,1.962
	c2.627,1.502,5.838,1.695,8.787,1.961c2.005,0.181,4.212,0.02,6.078-0.791c1.309-0.569,2.511-1.562,3.261-2.783
	c0.334-0.544,0.608-1.19,0.745-1.815c0.171-0.782,0.082-1.477-0.412-2.176C69.872,67.477,67.975,64.708,66.059,61.948z"/>
</svg>
