<svg xmlns="http://www.w3.org/2000/svg" width="24" height="24" viewBox="0 0 24 24"><g fill="none"><path fill="#1D9BF0" d="M21,24 L3,24 C1.344,24 0,22.656 0,21 L0,3 C0,1.344 1.344,0 3,0 L21,0 C22.656,0 24,1.344 24,3 L24,21 C24,22.656 22.656,24 21,24 Z"/><path fill="#FFF" d="M4.71,12.192 C10.368,12.192 13.464,7.5 13.464,3.438 C13.464,3.306 13.464,3.174 13.458,3.042 C14.058,2.61 14.58,2.064 14.994,1.446 C14.442,1.692 13.848,1.854 13.224,1.932 C13.86,1.554 14.346,0.948 14.58,0.228 C13.986,0.582 13.326,0.834 12.624,0.972 C12.06,0.372 11.262,0 10.38,0 C8.682,0 7.302,1.38 7.302,3.078 C7.302,3.318 7.332,3.552 7.38,3.78 C4.824,3.654 2.556,2.424 1.038,0.564 C0.774,1.02 0.624,1.548 0.624,2.112 C0.624,3.18 1.17,4.122 1.992,4.674 C1.488,4.656 1.014,4.518 0.6,4.29 C0.6,4.302 0.6,4.314 0.6,4.332 C0.6,5.82 1.662,7.068 3.066,7.35 C2.808,7.422 2.538,7.458 2.256,7.458 C2.058,7.458 1.866,7.44 1.68,7.404 C2.07,8.628 3.21,9.516 4.554,9.54 C3.498,10.368 2.172,10.86 0.732,10.86 C0.486,10.86 0.24,10.848 0,10.818 C1.356,11.682 2.976,12.192 4.71,12.192" transform="translate(4.506 5.904)"/></g></svg>