<svg xmlns="http://www.w3.org/2000/svg" xmlns:xlink="http://www.w3.org/1999/xlink" width="24" height="24" viewBox="0 0 24 24"><defs><polygon id="a" points="0 0 12 0 12 9 0 9"/></defs><g fill="none" fill-rule="evenodd"><path fill="#D9252A" fill-rule="nonzero" d="M21,24 L3,24 C1.344,24 0,22.656 0,21 L0,3 C0,1.344 1.344,0 3,0 L21,0 C22.656,0 24,1.344 24,3 L24,21 C24,22.656 22.656,24 21,24 Z"/><g transform="translate(6 8)"><mask id="b" fill="#fff"><use xlink:href="#a"/></mask><path fill="#FFF" d="M11.7490797,1.40526112 C11.6110191,0.852173709 11.2042495,0.416455979 10.6876838,0.268606169 C9.7514021,0 5.99698579,0 5.99698579,0 C5.99698579,0 2.24266831,0 1.30638666,0.268606169 C0.789820877,0.416455979 0.383051266,0.852173709 0.244990735,1.40526112 C-0.00592958616,2.40803631 -0.00592958616,4.49994708 -0.00592958616,4.49994708 C-0.00592958616,4.49994708 -0.00592958616,6.59196369 0.244990735,7.59463305 C0.383051266,8.14772046 0.789820877,8.58354402 1.30638666,8.731288 C2.24266831,9 5.99698579,9 5.99698579,9 C5.99698579,9 9.7514021,9 10.6876838,8.731288 C11.2042495,8.58354402 11.6110191,8.14772046 11.7490797,7.59463305 C12,6.59196369 12,4.49994708 12,4.49994708 C12,4.49994708 12,2.40803631 11.7490797,1.40526112" mask="url(#b)"/><polyline fill="#D9252A" points="4.796 6.429 7.916 4.5 4.796 2.571 4.796 6.429"/></g></g></svg>